<svg width="14" height="14" viewBox="0 0 14 14" fill="none" xmlns="http://www.w3.org/2000/svg">
<path d="M6.99992 5.25C7.46405 5.25 7.90917 5.43437 8.23736 5.76256C8.56554 6.09075 8.74992 6.53587 8.74992 7C8.74992 7.46413 8.56554 7.90925 8.23736 8.23744C7.90917 8.56563 7.46405 8.75 6.99992 8.75C6.53579 8.75 6.09067 8.56563 5.76248 8.23744C5.43429 7.90925 5.24992 7.46413 5.24992 7C5.24992 6.53587 5.43429 6.09075 5.76248 5.76256C6.09067 5.43437 6.53579 5.25 6.99992 5.25ZM6.99992 2.625C9.91658 2.625 12.4074 4.43917 13.4166 7C12.4074 9.56083 9.91658 11.375 6.99992 11.375C4.08325 11.375 1.59242 9.56083 0.583252 7C1.59242 4.43917 4.08325 2.625 6.99992 2.625ZM1.85492 7C2.3264 7.96268 3.05851 8.77377 3.96803 9.34106C4.87755 9.90836 5.92798 10.2091 6.99992 10.2091C8.07185 10.2091 9.12229 9.90836 10.0318 9.34106C10.9413 8.77377 11.6734 7.96268 12.1449 7C11.6734 6.03732 10.9413 5.22623 10.0318 4.65893C9.12229 4.09164 8.07185 3.7909 6.99992 3.7909C5.92798 3.7909 4.87755 4.09164 3.96803 4.65893C3.05851 5.22623 2.3264 6.03732 1.85492 7Z" fill="white"/>
</svg>
